<svg width="1024" height="753" viewBox="0 0 1024 753" fill="none" xmlns="http://www.w3.org/2000/svg">
<g opacity="0.2" filter="url(#filter0_f_175_198)">
<ellipse cx="511.5" cy="78.8778" rx="670.5" ry="357.878" fill="#51016E"/>
</g>
<path d="M32.0349 320.19C33.5302 320.19 34.6622 320.834 35.4308 322.123C36.2134 323.398 36.6047 325.254 36.6047 327.691C36.6047 330.128 36.2134 331.99 35.4308 333.28C34.6622 334.569 33.5302 335.213 32.0349 335.213C30.5536 335.213 29.4216 334.569 28.639 333.28C27.8564 331.99 27.4651 330.128 27.4651 327.691C27.4651 325.268 27.8564 323.413 28.639 322.123C29.4216 320.834 30.5536 320.19 32.0349 320.19ZM28.9534 327.691C28.9534 329.419 29.1072 330.772 29.4146 331.75L34.0683 322.336C33.5791 321.67 32.9013 321.337 32.0349 321.337C31.0706 321.337 30.316 321.861 29.771 322.91C29.2259 323.944 28.9534 325.538 28.9534 327.691ZM32.0349 334.045C33.0131 334.045 33.7748 333.528 34.3198 332.493C34.8648 331.445 35.1373 329.844 35.1373 327.691C35.1373 325.863 34.9627 324.447 34.6133 323.441L29.9596 332.94C30.4627 333.676 31.1545 334.045 32.0349 334.045Z" fill="url(#paint0_linear_175_198)" fill-opacity="0.6"/>
<path d="M33.2926 358.16H36.3741V359.287H28.3874V358.16H31.9511V346.218L28.5551 348.279L27.9682 347.323L32.1607 344.688H33.2926V358.16Z" fill="url(#paint1_linear_175_198)" fill-opacity="0.6"/>
<path d="M32.0349 368.761C33.5302 368.761 34.6622 369.406 35.4308 370.695C36.2134 371.97 36.6047 373.826 36.6047 376.262C36.6047 378.699 36.2134 380.562 35.4308 381.851C34.6622 383.14 33.5302 383.785 32.0349 383.785C30.5536 383.785 29.4216 383.14 28.639 381.851C27.8564 380.562 27.4651 378.699 27.4651 376.262C27.4651 373.84 27.8564 371.984 28.639 370.695C29.4216 369.406 30.5536 368.761 32.0349 368.761ZM28.9534 376.262C28.9534 377.991 29.1072 379.343 29.4146 380.321L34.0683 370.907C33.5791 370.241 32.9013 369.908 32.0349 369.908C31.0706 369.908 30.316 370.433 29.771 371.481C29.2259 372.515 28.9534 374.109 28.9534 376.262ZM32.0349 382.616C33.0131 382.616 33.7748 382.099 34.3198 381.065C34.8648 380.016 35.1373 378.416 35.1373 376.262C35.1373 374.435 34.9627 373.018 34.6133 372.012L29.9596 381.511C30.4627 382.248 31.1545 382.616 32.0349 382.616Z" fill="url(#paint2_linear_175_198)" fill-opacity="0.6"/>
<path d="M33.2926 406.732H36.3741V407.858H28.3874V406.732H31.9511V394.789L28.5551 396.85L27.9682 395.894L32.1607 393.259H33.2926V406.732Z" fill="url(#paint3_linear_175_198)" fill-opacity="0.6"/>
<path d="M33.2926 431.017H36.3741V432.144H28.3874V431.017H31.9511V419.075L28.5551 421.136L27.9682 420.18L32.1607 417.545H33.2926V431.017Z" fill="url(#paint4_linear_175_198)" fill-opacity="0.6"/>
<path d="M32.0349 441.618C33.5302 441.618 34.6622 442.263 35.4308 443.552C36.2134 444.827 36.6047 446.683 36.6047 449.119C36.6047 451.556 36.2134 453.419 35.4308 454.708C34.6622 455.997 33.5302 456.642 32.0349 456.642C30.5536 456.642 29.4216 455.997 28.639 454.708C27.8564 453.419 27.4651 451.556 27.4651 449.119C27.4651 446.697 27.8564 444.841 28.639 443.552C29.4216 442.263 30.5536 441.618 32.0349 441.618ZM28.9534 449.119C28.9534 450.848 29.1072 452.2 29.4146 453.178L34.0683 443.764C33.5791 443.098 32.9013 442.765 32.0349 442.765C31.0706 442.765 30.316 443.29 29.771 444.338C29.2259 445.372 28.9534 446.966 28.9534 449.119ZM32.0349 455.473C33.0131 455.473 33.7748 454.956 34.3198 453.922C34.8648 452.873 35.1373 451.273 35.1373 449.119C35.1373 447.292 34.9627 445.875 34.6133 444.869L29.9596 454.368C30.4627 455.105 31.1545 455.473 32.0349 455.473Z" fill="url(#paint5_linear_175_198)" fill-opacity="0.6"/>
<path d="M33.2926 479.589H36.3741V480.715H28.3874V479.589H31.9511V467.646L28.5551 469.707L27.9682 468.751L32.1607 466.116H33.2926V479.589Z" fill="url(#paint6_linear_175_198)" fill-opacity="0.6"/>
<path d="M32.0349 490.189C33.5302 490.189 34.6622 490.834 35.4308 492.123C36.2134 493.398 36.6047 495.254 36.6047 497.69C36.6047 500.127 36.2134 501.99 35.4308 503.279C34.6622 504.568 33.5302 505.213 32.0349 505.213C30.5536 505.213 29.4216 504.568 28.639 503.279C27.8564 501.99 27.4651 500.127 27.4651 497.69C27.4651 495.268 27.8564 493.412 28.639 492.123C29.4216 490.834 30.5536 490.189 32.0349 490.189ZM28.9534 497.69C28.9534 499.419 29.1072 500.772 29.4146 501.749L34.0683 492.335C33.5791 491.67 32.9013 491.337 32.0349 491.337C31.0706 491.337 30.316 491.861 29.771 492.909C29.2259 493.943 28.9534 495.537 28.9534 497.69ZM32.0349 504.044C33.0131 504.044 33.7748 503.527 34.3198 502.493C34.8648 501.445 35.1373 499.844 35.1373 497.69C35.1373 495.863 34.9627 494.446 34.6133 493.44L29.9596 502.939C30.4627 503.676 31.1545 504.044 32.0349 504.044Z" fill="url(#paint7_linear_175_198)" fill-opacity="0.6"/>
<path d="M32.0349 514.475C33.5302 514.475 34.6622 515.119 35.4308 516.409C36.2134 517.684 36.6047 519.539 36.6047 521.976C36.6047 524.413 36.2134 526.276 35.4308 527.565C34.6622 528.854 33.5302 529.499 32.0349 529.499C30.5536 529.499 29.4216 528.854 28.639 527.565C27.8564 526.276 27.4651 524.413 27.4651 521.976C27.4651 519.554 27.8564 517.698 28.639 516.409C29.4216 515.119 30.5536 514.475 32.0349 514.475ZM28.9534 521.976C28.9534 523.704 29.1072 525.057 29.4146 526.035L34.0683 516.621C33.5791 515.955 32.9013 515.622 32.0349 515.622C31.0706 515.622 30.316 516.147 29.771 517.195C29.2259 518.229 28.9534 519.823 28.9534 521.976ZM32.0349 528.33C33.0131 528.33 33.7748 527.813 34.3198 526.779C34.8648 525.73 35.1373 524.129 35.1373 521.976C35.1373 520.149 34.9627 518.732 34.6133 517.726L29.9596 527.225C30.4627 527.962 31.1545 528.33 32.0349 528.33Z" fill="url(#paint8_linear_175_198)" fill-opacity="0.6"/>
<path d="M33.2926 552.446H36.3741V553.572H28.3874V552.446H31.9511V540.503L28.5551 542.564L27.9682 541.608L32.1607 538.973H33.2926V552.446Z" fill="url(#paint9_linear_175_198)" fill-opacity="0.6"/>
<path d="M32.0349 563.046C33.5302 563.046 34.6622 563.691 35.4308 564.98C36.2134 566.255 36.6047 568.111 36.6047 570.547C36.6047 572.984 36.2134 574.847 35.4308 576.136C34.6622 577.425 33.5302 578.07 32.0349 578.07C30.5536 578.07 29.4216 577.425 28.639 576.136C27.8564 574.847 27.4651 572.984 27.4651 570.547C27.4651 568.125 27.8564 566.269 28.639 564.98C29.4216 563.691 30.5536 563.046 32.0349 563.046ZM28.9534 570.547C28.9534 572.276 29.1072 573.629 29.4146 574.606L34.0683 565.192C33.5791 564.527 32.9013 564.194 32.0349 564.194C31.0706 564.194 30.316 564.718 29.771 565.766C29.2259 566.8 28.9534 568.394 28.9534 570.547ZM32.0349 576.901C33.0131 576.901 33.7748 576.384 34.3198 575.35C34.8648 574.302 35.1373 572.701 35.1373 570.547C35.1373 568.72 34.9627 567.303 34.6133 566.297L29.9596 575.796C30.4627 576.533 31.1545 576.901 32.0349 576.901Z" fill="url(#paint10_linear_175_198)" fill-opacity="0.6"/>
<path d="M33.2926 601.017H36.3741V602.143H28.3874V601.017H31.9511V589.074L28.5551 591.136L27.9682 590.179L32.1607 587.544H33.2926V601.017Z" fill="url(#paint11_linear_175_198)" fill-opacity="0.6"/>
<path d="M33.2926 625.302H36.3741V626.429H28.3874V625.302H31.9511V613.36L28.5551 615.421L27.9682 614.465L32.1607 611.83H33.2926V625.302Z" fill="url(#paint12_linear_175_198)" fill-opacity="0.6"/>
<path d="M70.9651 368.761C72.4604 368.761 73.5924 369.406 74.361 370.695C75.1436 371.97 75.5349 373.826 75.5349 376.262C75.5349 378.699 75.1436 380.562 74.361 381.851C73.5924 383.14 72.4604 383.785 70.9651 383.785C69.4838 383.785 68.3518 383.14 67.5692 381.851C66.7866 380.562 66.3953 378.699 66.3953 376.262C66.3953 373.84 66.7866 371.984 67.5692 370.695C68.3518 369.406 69.4838 368.761 70.9651 368.761ZM67.8836 376.262C67.8836 377.991 68.0374 379.343 68.3448 380.321L72.9985 370.907C72.5093 370.241 71.8315 369.908 70.9651 369.908C70.0008 369.908 69.2462 370.433 68.7012 371.481C68.1561 372.515 67.8836 374.109 67.8836 376.262ZM70.9651 382.616C71.9433 382.616 72.705 382.099 73.25 381.065C73.795 380.016 74.0675 378.416 74.0675 376.262C74.0675 374.435 73.8928 373.018 73.5435 372.012L68.8898 381.511C69.3929 382.248 70.0847 382.616 70.9651 382.616Z" fill="url(#paint13_linear_175_198)" fill-opacity="0.6"/>
<path d="M72.2228 406.732H75.3043V407.858H67.3176V406.732H70.8812V394.789L67.4853 396.85L66.8984 395.894L71.0909 393.259H72.2228V406.732Z" fill="url(#paint14_linear_175_198)" fill-opacity="0.6"/>
<path d="M70.9651 417.332C72.4604 417.332 73.5924 417.977 74.361 419.266C75.1436 420.541 75.5349 422.397 75.5349 424.834C75.5349 427.27 75.1436 429.133 74.361 430.422C73.5924 431.711 72.4604 432.356 70.9651 432.356C69.4838 432.356 68.3518 431.711 67.5692 430.422C66.7866 429.133 66.3953 427.27 66.3953 424.834C66.3953 422.411 66.7866 420.555 67.5692 419.266C68.3518 417.977 69.4838 417.332 70.9651 417.332ZM67.8836 424.834C67.8836 426.562 68.0374 427.915 68.3448 428.892L72.9985 419.479C72.5093 418.813 71.8315 418.48 70.9651 418.48C70.0008 418.48 69.2462 419.004 68.7012 420.052C68.1561 421.086 67.8836 422.68 67.8836 424.834ZM70.9651 431.187C71.9433 431.187 72.705 430.67 73.25 429.636C73.795 428.588 74.0675 426.987 74.0675 424.834C74.0675 423.006 73.8928 421.589 73.5435 420.584L68.8898 430.082C69.3929 430.819 70.0847 431.187 70.9651 431.187Z" fill="url(#paint15_linear_175_198)" fill-opacity="0.6"/>
<path d="M70.9651 441.618C72.4604 441.618 73.5924 442.263 74.361 443.552C75.1436 444.827 75.5349 446.683 75.5349 449.119C75.5349 451.556 75.1436 453.419 74.361 454.708C73.5924 455.997 72.4604 456.642 70.9651 456.642C69.4838 456.642 68.3518 455.997 67.5692 454.708C66.7866 453.419 66.3953 451.556 66.3953 449.119C66.3953 446.697 66.7866 444.841 67.5692 443.552C68.3518 442.263 69.4838 441.618 70.9651 441.618ZM67.8836 449.119C67.8836 450.848 68.0374 452.2 68.3448 453.178L72.9985 443.764C72.5093 443.098 71.8315 442.765 70.9651 442.765C70.0008 442.765 69.2462 443.29 68.7012 444.338C68.1561 445.372 67.8836 446.966 67.8836 449.119ZM70.9651 455.473C71.9433 455.473 72.705 454.956 73.25 453.922C73.795 452.873 74.0675 451.273 74.0675 449.119C74.0675 447.292 73.8928 445.875 73.5435 444.869L68.8898 454.368C69.3929 455.105 70.0847 455.473 70.9651 455.473Z" fill="url(#paint16_linear_175_198)" fill-opacity="0.6"/>
<path d="M72.2228 479.589H75.3043V480.715H67.3176V479.589H70.8812V467.646L67.4853 469.707L66.8984 468.751L71.0909 466.116H72.2228V479.589Z" fill="url(#paint17_linear_175_198)" fill-opacity="0.6"/>
<path d="M70.9651 490.189C72.4604 490.189 73.5924 490.834 74.361 492.123C75.1436 493.398 75.5349 495.254 75.5349 497.69C75.5349 500.127 75.1436 501.99 74.361 503.279C73.5924 504.568 72.4604 505.213 70.9651 505.213C69.4838 505.213 68.3518 504.568 67.5692 503.279C66.7866 501.99 66.3953 500.127 66.3953 497.69C66.3953 495.268 66.7866 493.412 67.5692 492.123C68.3518 490.834 69.4838 490.189 70.9651 490.189ZM67.8836 497.69C67.8836 499.419 68.0374 500.772 68.3448 501.749L72.9985 492.335C72.5093 491.67 71.8315 491.337 70.9651 491.337C70.0008 491.337 69.2462 491.861 68.7012 492.909C68.1561 493.943 67.8836 495.537 67.8836 497.69ZM70.9651 504.044C71.9433 504.044 72.705 503.527 73.25 502.493C73.795 501.445 74.0675 499.844 74.0675 497.69C74.0675 495.863 73.8928 494.446 73.5435 493.44L68.8898 502.939C69.3929 503.676 70.0847 504.044 70.9651 504.044Z" fill="url(#paint18_linear_175_198)" fill-opacity="0.6"/>
<path d="M72.2228 528.16H75.3043V529.286H67.3176V528.16H70.8812V516.217L67.4853 518.279L66.8984 517.322L71.0909 514.687H72.2228V528.16Z" fill="url(#paint19_linear_175_198)" fill-opacity="0.6"/>
<path d="M70.9651 538.761C72.4604 538.761 73.5924 539.405 74.361 540.694C75.1436 541.969 75.5349 543.825 75.5349 546.262C75.5349 548.698 75.1436 550.561 74.361 551.85C73.5924 553.14 72.4604 553.784 70.9651 553.784C69.4838 553.784 68.3518 553.14 67.5692 551.85C66.7866 550.561 66.3953 548.698 66.3953 546.262C66.3953 543.839 66.7866 541.983 67.5692 540.694C68.3518 539.405 69.4838 538.761 70.9651 538.761ZM67.8836 546.262C67.8836 547.99 68.0374 549.343 68.3448 550.321L72.9985 540.907C72.5093 540.241 71.8315 539.908 70.9651 539.908C70.0008 539.908 69.2462 540.432 68.7012 541.481C68.1561 542.515 67.8836 544.108 67.8836 546.262ZM70.9651 552.616C71.9433 552.616 72.705 552.098 73.25 551.064C73.795 550.016 74.0675 548.415 74.0675 546.262C74.0675 544.434 73.8928 543.018 73.5435 542.012L68.8898 551.51C69.3929 552.247 70.0847 552.616 70.9651 552.616Z" fill="url(#paint20_linear_175_198)" fill-opacity="0.6"/>
<path d="M70.9651 563.046C72.4604 563.046 73.5924 563.691 74.361 564.98C75.1436 566.255 75.5349 568.111 75.5349 570.547C75.5349 572.984 75.1436 574.847 74.361 576.136C73.5924 577.425 72.4604 578.07 70.9651 578.07C69.4838 578.07 68.3518 577.425 67.5692 576.136C66.7866 574.847 66.3953 572.984 66.3953 570.547C66.3953 568.125 66.7866 566.269 67.5692 564.98C68.3518 563.691 69.4838 563.046 70.9651 563.046ZM67.8836 570.547C67.8836 572.276 68.0374 573.629 68.3448 574.606L72.9985 565.192C72.5093 564.527 71.8315 564.194 70.9651 564.194C70.0008 564.194 69.2462 564.718 68.7012 565.766C68.1561 566.8 67.8836 568.394 67.8836 570.547ZM70.9651 576.901C71.9433 576.901 72.705 576.384 73.25 575.35C73.795 574.302 74.0675 572.701 74.0675 570.547C74.0675 568.72 73.8928 567.303 73.5435 566.297L68.8898 575.796C69.3929 576.533 70.0847 576.901 70.9651 576.901Z" fill="url(#paint21_linear_175_198)" fill-opacity="0.6"/>
<path d="M72.2228 601.017H75.3043V602.143H67.3176V601.017H70.8812V589.074L67.4853 591.136L66.8984 590.179L71.0909 587.544H72.2228V601.017Z" fill="url(#paint22_linear_175_198)" fill-opacity="0.6"/>
<path d="M70.9651 611.617C72.4604 611.617 73.5924 612.262 74.361 613.551C75.1436 614.826 75.5349 616.682 75.5349 619.119C75.5349 621.555 75.1436 623.418 74.361 624.707C73.5924 625.997 72.4604 626.641 70.9651 626.641C69.4838 626.641 68.3518 625.997 67.5692 624.707C66.7866 623.418 66.3953 621.555 66.3953 619.119C66.3953 616.696 66.7866 614.84 67.5692 613.551C68.3518 612.262 69.4838 611.617 70.9651 611.617ZM67.8836 619.119C67.8836 620.847 68.0374 622.2 68.3448 623.177L72.9985 613.764C72.5093 613.098 71.8315 612.765 70.9651 612.765C70.0008 612.765 69.2462 613.289 68.7012 614.337C68.1561 615.372 67.8836 616.965 67.8836 619.119ZM70.9651 625.472C71.9433 625.472 72.705 624.955 73.25 623.921C73.795 622.873 74.0675 621.272 74.0675 619.119C74.0675 617.291 73.8928 615.875 73.5435 614.869L68.8898 624.367C69.3929 625.104 70.0847 625.472 70.9651 625.472Z" fill="url(#paint23_linear_175_198)" fill-opacity="0.6"/>
<path d="M72.2228 649.588H75.3043V650.714H67.3176V649.588H70.8812V637.646L67.4853 639.707L66.8984 638.751L71.0909 636.116H72.2228V649.588Z" fill="url(#paint24_linear_175_198)" fill-opacity="0.6"/>
<path d="M72.2228 673.874H75.3043V675H67.3176V673.874H70.8812V661.931L67.4853 663.993L66.8984 663.036L71.0909 660.401H72.2228V673.874Z" fill="url(#paint25_linear_175_198)" fill-opacity="0.6"/>
<path d="M12.5698 393.047C14.0651 393.047 15.1971 393.691 15.9657 394.98C16.7483 396.255 17.1396 398.111 17.1396 400.548C17.1396 402.985 16.7483 404.847 15.9657 406.137C15.1971 407.426 14.0651 408.07 12.5698 408.07C11.0885 408.07 9.95649 407.426 9.1739 406.137C8.3913 404.847 8 402.985 8 400.548C8 398.125 8.3913 396.27 9.1739 394.98C9.95649 393.691 11.0885 393.047 12.5698 393.047ZM9.48833 400.548C9.48833 402.276 9.64206 403.629 9.9495 404.607L14.6032 395.193C14.114 394.527 13.4363 394.194 12.5698 394.194C11.6055 394.194 10.8509 394.718 10.3059 395.767C9.76084 396.801 9.48833 398.395 9.48833 400.548ZM12.5698 406.902C13.5481 406.902 14.3097 406.385 14.8547 405.35C15.3997 404.302 15.6722 402.701 15.6722 400.548C15.6722 398.72 15.4976 397.304 15.1482 396.298L10.4945 405.797C10.9976 406.533 11.6894 406.902 12.5698 406.902Z" fill="url(#paint26_linear_175_198)" fill-opacity="0.6"/>
<path d="M12.5698 417.332C14.0651 417.332 15.1971 417.977 15.9657 419.266C16.7483 420.541 17.1396 422.397 17.1396 424.834C17.1396 427.27 16.7483 429.133 15.9657 430.422C15.1971 431.711 14.0651 432.356 12.5698 432.356C11.0885 432.356 9.95649 431.711 9.1739 430.422C8.3913 429.133 8 427.27 8 424.834C8 422.411 8.3913 420.555 9.1739 419.266C9.95649 417.977 11.0885 417.332 12.5698 417.332ZM9.48833 424.834C9.48833 426.562 9.64206 427.915 9.9495 428.892L14.6032 419.479C14.114 418.813 13.4363 418.48 12.5698 418.48C11.6055 418.48 10.8509 419.004 10.3059 420.052C9.76084 421.086 9.48833 422.68 9.48833 424.834ZM12.5698 431.187C13.5481 431.187 14.3097 430.67 14.8547 429.636C15.3997 428.588 15.6722 426.987 15.6722 424.834C15.6722 423.006 15.4976 421.589 15.1482 420.584L10.4945 430.082C10.9976 430.819 11.6894 431.187 12.5698 431.187Z" fill="url(#paint27_linear_175_198)" fill-opacity="0.6"/>
<path d="M13.8276 455.303H16.909V456.429H8.92235V455.303H12.486V443.36L9.09005 445.422L8.5031 444.465L12.6956 441.83H13.8276V455.303Z" fill="url(#paint28_linear_175_198)" fill-opacity="0.6"/>
<path d="M12.5698 465.904C14.0651 465.904 15.1971 466.548 15.9657 467.837C16.7483 469.112 17.1396 470.968 17.1396 473.405C17.1396 475.841 16.7483 477.704 15.9657 478.994C15.1971 480.283 14.0651 480.927 12.5698 480.927C11.0885 480.927 9.95649 480.283 9.1739 478.994C8.3913 477.704 8 475.841 8 473.405C8 470.982 8.3913 469.127 9.1739 467.837C9.95649 466.548 11.0885 465.904 12.5698 465.904ZM9.48833 473.405C9.48833 475.133 9.64206 476.486 9.9495 477.464L14.6032 468.05C14.114 467.384 13.4363 467.051 12.5698 467.051C11.6055 467.051 10.8509 467.575 10.3059 468.624C9.76084 469.658 9.48833 471.251 9.48833 473.405ZM12.5698 479.759C13.5481 479.759 14.3097 479.241 14.8547 478.207C15.3997 477.159 15.6722 475.558 15.6722 473.405C15.6722 471.577 15.4976 470.161 15.1482 469.155L10.4945 478.654C10.9976 479.39 11.6894 479.759 12.5698 479.759Z" fill="url(#paint29_linear_175_198)" fill-opacity="0.6"/>
<path d="M13.8276 503.874H16.909V505H8.92235V503.874H12.486V491.932L9.09005 493.993L8.5031 493.037L12.6956 490.402H13.8276V503.874Z" fill="url(#paint30_linear_175_198)" fill-opacity="0.6"/>
<path d="M13.8276 528.16H16.909V529.286H8.92235V528.16H12.486V516.217L9.09005 518.279L8.5031 517.322L12.6956 514.687H13.8276V528.16Z" fill="url(#paint31_linear_175_198)" fill-opacity="0.6"/>
<path d="M52.7577 358.16H55.8392V359.287H47.8525V358.16H51.4162V346.218L48.0202 348.279L47.4333 347.323L51.6258 344.688H52.7577V358.16Z" fill="url(#paint32_linear_175_198)" fill-opacity="0.6"/>
<path d="M51.5 368.761C52.9953 368.761 54.1273 369.406 54.8959 370.695C55.6785 371.97 56.0698 373.826 56.0698 376.262C56.0698 378.699 55.6785 380.562 54.8959 381.851C54.1273 383.14 52.9953 383.785 51.5 383.785C50.0187 383.785 48.8867 383.14 48.1041 381.851C47.3215 380.562 46.9302 378.699 46.9302 376.262C46.9302 373.84 47.3215 371.984 48.1041 370.695C48.8867 369.406 50.0187 368.761 51.5 368.761ZM48.4185 376.262C48.4185 377.991 48.5723 379.343 48.8797 380.321L53.5334 370.907C53.0442 370.241 52.3664 369.908 51.5 369.908C50.5357 369.908 49.7811 370.433 49.2361 371.481C48.691 372.515 48.4185 374.109 48.4185 376.262ZM51.5 382.616C52.4782 382.616 53.2399 382.099 53.7849 381.065C54.3299 380.016 54.6024 378.416 54.6024 376.262C54.6024 374.435 54.4277 373.018 54.0784 372.012L49.4247 381.511C49.9278 382.248 50.6196 382.616 51.5 382.616Z" fill="url(#paint33_linear_175_198)" fill-opacity="0.6"/>
<path d="M52.7577 406.732H55.8392V407.858H47.8525V406.732H51.4162V394.789L48.0202 396.85L47.4333 395.894L51.6258 393.259H52.7577V406.732Z" fill="url(#paint34_linear_175_198)" fill-opacity="0.6"/>
<path d="M52.7577 431.017H55.8392V432.144H47.8525V431.017H51.4162V419.075L48.0202 421.136L47.4333 420.18L51.6258 417.545H52.7577V431.017Z" fill="url(#paint35_linear_175_198)" fill-opacity="0.6"/>
<path d="M51.5 441.618C52.9953 441.618 54.1273 442.263 54.8959 443.552C55.6785 444.827 56.0698 446.683 56.0698 449.119C56.0698 451.556 55.6785 453.419 54.8959 454.708C54.1273 455.997 52.9953 456.642 51.5 456.642C50.0187 456.642 48.8867 455.997 48.1041 454.708C47.3215 453.419 46.9302 451.556 46.9302 449.119C46.9302 446.697 47.3215 444.841 48.1041 443.552C48.8867 442.263 50.0187 441.618 51.5 441.618ZM48.4185 449.119C48.4185 450.848 48.5723 452.2 48.8797 453.178L53.5334 443.764C53.0442 443.098 52.3664 442.765 51.5 442.765C50.5357 442.765 49.7811 443.29 49.2361 444.338C48.691 445.372 48.4185 446.966 48.4185 449.119ZM51.5 455.473C52.4782 455.473 53.2399 454.956 53.7849 453.922C54.3299 452.873 54.6024 451.273 54.6024 449.119C54.6024 447.292 54.4277 445.875 54.0784 444.869L49.4247 454.368C49.9278 455.105 50.6196 455.473 51.5 455.473Z" fill="url(#paint36_linear_175_198)" fill-opacity="0.6"/>
<path d="M52.7577 479.589H55.8392V480.715H47.8525V479.589H51.4162V467.646L48.0202 469.707L47.4333 468.751L51.6258 466.116H52.7577V479.589Z" fill="url(#paint37_linear_175_198)" fill-opacity="0.6"/>
<path d="M52.7577 503.874H55.8392V505H47.8525V503.874H51.4162V491.932L48.0202 493.993L47.4333 493.037L51.6258 490.402H52.7577V503.874Z" fill="url(#paint38_linear_175_198)" fill-opacity="0.6"/>
<path d="M51.5 514.475C52.9953 514.475 54.1273 515.119 54.8959 516.409C55.6785 517.684 56.0698 519.539 56.0698 521.976C56.0698 524.413 55.6785 526.276 54.8959 527.565C54.1273 528.854 52.9953 529.499 51.5 529.499C50.0187 529.499 48.8867 528.854 48.1041 527.565C47.3215 526.276 46.9302 524.413 46.9302 521.976C46.9302 519.554 47.3215 517.698 48.1041 516.409C48.8867 515.119 50.0187 514.475 51.5 514.475ZM48.4185 521.976C48.4185 523.704 48.5723 525.057 48.8797 526.035L53.5334 516.621C53.0442 515.955 52.3664 515.622 51.5 515.622C50.5357 515.622 49.7811 516.147 49.2361 517.195C48.691 518.229 48.4185 519.823 48.4185 521.976ZM51.5 528.33C52.4782 528.33 53.2399 527.813 53.7849 526.779C54.3299 525.73 54.6024 524.129 54.6024 521.976C54.6024 520.149 54.4277 518.732 54.0784 517.726L49.4247 527.225C49.9278 527.962 50.6196 528.33 51.5 528.33Z" fill="url(#paint39_linear_175_198)" fill-opacity="0.6"/>
<path d="M52.7577 552.446H55.8392V553.572H47.8525V552.446H51.4162V540.503L48.0202 542.564L47.4333 541.608L51.6258 538.973H52.7577V552.446Z" fill="url(#paint40_linear_175_198)" fill-opacity="0.6"/>
<path d="M51.5 563.046C52.9953 563.046 54.1273 563.691 54.8959 564.98C55.6785 566.255 56.0698 568.111 56.0698 570.547C56.0698 572.984 55.6785 574.847 54.8959 576.136C54.1273 577.425 52.9953 578.07 51.5 578.07C50.0187 578.07 48.8867 577.425 48.1041 576.136C47.3215 574.847 46.9302 572.984 46.9302 570.547C46.9302 568.125 47.3215 566.269 48.1041 564.98C48.8867 563.691 50.0187 563.046 51.5 563.046ZM48.4185 570.547C48.4185 572.276 48.5723 573.629 48.8797 574.606L53.5334 565.192C53.0442 564.527 52.3664 564.194 51.5 564.194C50.5357 564.194 49.7811 564.718 49.2361 565.766C48.691 566.8 48.4185 568.394 48.4185 570.547ZM51.5 576.901C52.4782 576.901 53.2399 576.384 53.7849 575.35C54.3299 574.302 54.6024 572.701 54.6024 570.547C54.6024 568.72 54.4277 567.303 54.0784 566.297L49.4247 575.796C49.9278 576.533 50.6196 576.901 51.5 576.901Z" fill="url(#paint41_linear_175_198)" fill-opacity="0.6"/>
<path d="M90.4302 344.475C91.9255 344.475 93.0575 345.12 93.8261 346.409C94.6087 347.684 95 349.54 95 351.977C95 354.413 94.6087 356.276 93.8261 357.565C93.0575 358.854 91.9255 359.499 90.4302 359.499C88.9489 359.499 87.8169 358.854 87.0343 357.565C86.2517 356.276 85.8604 354.413 85.8604 351.977C85.8604 349.554 86.2517 347.698 87.0343 346.409C87.8169 345.12 88.9489 344.475 90.4302 344.475ZM87.3487 351.977C87.3487 353.705 87.5024 355.058 87.8099 356.035L92.4636 346.622C91.9744 345.956 91.2966 345.623 90.4302 345.623C89.4659 345.623 88.7113 346.147 88.1663 347.195C87.6212 348.23 87.3487 349.823 87.3487 351.977ZM90.4302 358.33C91.4084 358.33 92.1701 357.813 92.7151 356.779C93.2601 355.731 93.5326 354.13 93.5326 351.977C93.5326 350.149 93.3579 348.732 93.0086 347.727L88.3549 357.225C88.858 357.962 89.5498 358.33 90.4302 358.33Z" fill="url(#paint42_linear_175_198)" fill-opacity="0.6"/>
<path d="M91.6879 382.446H94.7694V383.572H86.7827V382.446H90.3463V370.503L86.9504 372.565L86.3635 371.608L90.556 368.973H91.6879V382.446Z" fill="url(#paint43_linear_175_198)" fill-opacity="0.6"/>
<path d="M91.6879 406.732H94.7694V407.858H86.7827V406.732H90.3463V394.789L86.9504 396.85L86.3635 395.894L90.556 393.259H91.6879V406.732Z" fill="url(#paint44_linear_175_198)" fill-opacity="0.6"/>
<path d="M90.4302 417.332C91.9255 417.332 93.0575 417.977 93.8261 419.266C94.6087 420.541 95 422.397 95 424.834C95 427.27 94.6087 429.133 93.8261 430.422C93.0575 431.711 91.9255 432.356 90.4302 432.356C88.9489 432.356 87.8169 431.711 87.0343 430.422C86.2517 429.133 85.8604 427.27 85.8604 424.834C85.8604 422.411 86.2517 420.555 87.0343 419.266C87.8169 417.977 88.9489 417.332 90.4302 417.332ZM87.3487 424.834C87.3487 426.562 87.5024 427.915 87.8099 428.892L92.4636 419.479C91.9744 418.813 91.2966 418.48 90.4302 418.48C89.4659 418.48 88.7113 419.004 88.1663 420.052C87.6212 421.086 87.3487 422.68 87.3487 424.834ZM90.4302 431.187C91.4084 431.187 92.1701 430.67 92.7151 429.636C93.2601 428.588 93.5326 426.987 93.5326 424.834C93.5326 423.006 93.3579 421.589 93.0086 420.584L88.3549 430.082C88.858 430.819 89.5498 431.187 90.4302 431.187Z" fill="url(#paint45_linear_175_198)" fill-opacity="0.6"/>
<path d="M90.4302 441.618C91.9255 441.618 93.0575 442.263 93.8261 443.552C94.6087 444.827 95 446.683 95 449.119C95 451.556 94.6087 453.419 93.8261 454.708C93.0575 455.997 91.9255 456.642 90.4302 456.642C88.9489 456.642 87.8169 455.997 87.0343 454.708C86.2517 453.419 85.8604 451.556 85.8604 449.119C85.8604 446.697 86.2517 444.841 87.0343 443.552C87.8169 442.263 88.9489 441.618 90.4302 441.618ZM87.3487 449.119C87.3487 450.848 87.5024 452.2 87.8099 453.178L92.4636 443.764C91.9744 443.098 91.2966 442.765 90.4302 442.765C89.4659 442.765 88.7113 443.29 88.1663 444.338C87.6212 445.372 87.3487 446.966 87.3487 449.119ZM90.4302 455.473C91.4084 455.473 92.1701 454.956 92.7151 453.922C93.2601 452.873 93.5326 451.273 93.5326 449.119C93.5326 447.292 93.3579 445.875 93.0086 444.869L88.3549 454.368C88.858 455.105 89.5498 455.473 90.4302 455.473Z" fill="url(#paint46_linear_175_198)" fill-opacity="0.6"/>
<g opacity="0.6">
<path d="M918.93 13.4373C920.356 13.4373 921.436 14.0559 922.17 15.293C922.916 16.5166 923.29 18.2975 923.29 20.6359C923.29 22.9742 922.916 24.762 922.17 25.9991C921.436 27.2363 920.356 27.8549 918.93 27.8549C917.517 27.8549 916.437 27.2363 915.69 25.9991C914.943 24.762 914.57 22.9742 914.57 20.6359C914.57 18.3111 914.943 16.5302 915.69 15.293C916.437 14.0559 917.517 13.4373 918.93 13.4373ZM915.99 20.6359C915.99 22.2945 916.137 23.5928 916.43 24.5309L920.87 15.4969C920.403 14.858 919.756 14.5385 918.93 14.5385C918.01 14.5385 917.29 15.0415 916.77 16.0475C916.25 17.04 915.99 18.5694 915.99 20.6359ZM918.93 26.7333C919.863 26.7333 920.59 26.237 921.11 25.2446C921.63 24.2386 921.89 22.7023 921.89 20.6359C921.89 18.8821 921.723 17.5226 921.39 16.5574L916.95 25.6728C917.43 26.3798 918.09 26.7333 918.93 26.7333Z" fill="url(#paint47_linear_175_198)"/>
<path d="M920.13 49.8759H923.07V50.9568H915.45V49.8759H918.85V38.4153L915.61 40.3934L915.05 39.4757L919.05 36.947H920.13V49.8759Z" fill="url(#paint48_linear_175_198)"/>
<path d="M918.93 60.0489C920.356 60.0489 921.436 60.6675 922.17 61.9047C922.916 63.1282 923.29 64.9092 923.29 67.2475C923.29 69.5859 922.916 71.3736 922.17 72.6108C921.436 73.8479 920.356 74.4665 918.93 74.4665C917.517 74.4665 916.437 73.8479 915.69 72.6108C914.943 71.3736 914.57 69.5859 914.57 67.2475C914.57 64.9228 914.943 63.1418 915.69 61.9047C916.437 60.6675 917.517 60.0489 918.93 60.0489ZM915.99 67.2475C915.99 68.9061 916.137 70.2045 916.43 71.1425L920.87 62.1086C920.403 61.4696 919.756 61.1501 918.93 61.1501C918.01 61.1501 917.29 61.6532 916.77 62.6592C916.25 63.6516 915.99 65.1811 915.99 67.2475ZM918.93 73.3449C919.863 73.3449 920.59 72.8487 921.11 71.8563C921.63 70.8502 921.89 69.314 921.89 67.2475C921.89 65.4938 921.723 64.1343 921.39 63.169L916.95 72.2845C917.43 72.9914 918.09 73.3449 918.93 73.3449Z" fill="url(#paint49_linear_175_198)"/>
<path d="M920.13 96.4876H923.07V97.5684H915.45V96.4876H918.85V85.027L915.61 87.005L915.05 86.0874L919.05 83.5587H920.13V96.4876Z" fill="url(#paint50_linear_175_198)"/>
<path d="M920.13 119.793H923.07V120.874H915.45V119.793H918.85V108.333L915.61 110.311L915.05 109.393L919.05 106.865H920.13V119.793Z" fill="url(#paint51_linear_175_198)"/>
<path d="M918.93 129.966C920.356 129.966 921.436 130.585 922.17 131.822C922.916 133.046 923.29 134.827 923.29 137.165C923.29 139.503 922.916 141.291 922.17 142.528C921.436 143.765 920.356 144.384 918.93 144.384C917.517 144.384 916.437 143.765 915.69 142.528C914.943 141.291 914.57 139.503 914.57 137.165C914.57 134.84 914.943 133.059 915.69 131.822C916.437 130.585 917.517 129.966 918.93 129.966ZM915.99 137.165C915.99 138.824 916.137 140.122 916.43 141.06L920.87 132.026C920.403 131.387 919.756 131.068 918.93 131.068C918.01 131.068 917.29 131.571 916.77 132.577C916.25 133.569 915.99 135.099 915.99 137.165ZM918.93 143.262C919.863 143.262 920.59 142.766 921.11 141.774C921.63 140.768 921.89 139.231 921.89 137.165C921.89 135.411 921.723 134.052 921.39 133.086L916.95 142.202C917.43 142.909 918.09 143.262 918.93 143.262Z" fill="url(#paint52_linear_175_198)"/>
<path d="M920.13 166.405H923.07V167.486H915.45V166.405H918.85V154.944L915.61 156.923L915.05 156.005L919.05 153.476H920.13V166.405Z" fill="url(#paint53_linear_175_198)"/>
<path d="M918.93 176.578C920.356 176.578 921.436 177.197 922.17 178.434C922.916 179.657 923.29 181.438 923.29 183.777C923.29 186.115 922.916 187.903 922.17 189.14C921.436 190.377 920.356 190.996 918.93 190.996C917.517 190.996 916.437 190.377 915.69 189.14C914.943 187.903 914.57 186.115 914.57 183.777C914.57 181.452 914.943 179.671 915.69 178.434C916.437 177.197 917.517 176.578 918.93 176.578ZM915.99 183.777C915.99 185.435 916.137 186.734 916.43 187.672L920.87 178.638C920.403 177.999 919.756 177.679 918.93 177.679C918.01 177.679 917.29 178.182 916.77 179.188C916.25 180.181 915.99 181.71 915.99 183.777ZM918.93 189.874C919.863 189.874 920.59 189.378 921.11 188.385C921.63 187.379 921.89 185.843 921.89 183.777C921.89 182.023 921.723 180.663 921.39 179.698L916.95 188.814C917.43 189.521 918.09 189.874 918.93 189.874Z" fill="url(#paint54_linear_175_198)"/>
<path d="M918.93 199.884C920.356 199.884 921.436 200.502 922.17 201.74C922.916 202.963 923.29 204.744 923.29 207.083C923.29 209.421 922.916 211.209 922.17 212.446C921.436 213.683 920.356 214.301 918.93 214.301C917.517 214.301 916.437 213.683 915.69 212.446C914.943 211.209 914.57 209.421 914.57 207.083C914.57 204.758 914.943 202.977 915.69 201.74C916.437 200.502 917.517 199.884 918.93 199.884ZM915.99 207.083C915.99 208.741 916.137 210.039 916.43 210.977L920.87 201.944C920.403 201.305 919.756 200.985 918.93 200.985C918.01 200.985 917.29 201.488 916.77 202.494C916.25 203.487 915.99 205.016 915.99 207.083ZM918.93 213.18C919.863 213.18 920.59 212.684 921.11 211.691C921.63 210.685 921.89 209.149 921.89 207.083C921.89 205.329 921.723 203.969 921.39 203.004L916.95 212.119C917.43 212.826 918.09 213.18 918.93 213.18Z" fill="url(#paint55_linear_175_198)"/>
<path d="M920.13 236.323H923.07V237.403H915.45V236.323H918.85V224.862L915.61 226.84L915.05 225.922L919.05 223.394H920.13V236.323Z" fill="url(#paint56_linear_175_198)"/>
<path d="M918.93 246.496C920.356 246.496 921.436 247.114 922.17 248.351C922.916 249.575 923.29 251.356 923.29 253.694C923.29 256.032 922.916 257.82 922.17 259.057C921.436 260.295 920.356 260.913 918.93 260.913C917.517 260.913 916.437 260.295 915.69 259.057C914.943 257.82 914.57 256.032 914.57 253.694C914.57 251.369 914.943 249.588 915.69 248.351C916.437 247.114 917.517 246.496 918.93 246.496ZM915.99 253.694C915.99 255.353 916.137 256.651 916.43 257.589L920.87 248.555C920.403 247.916 919.756 247.597 918.93 247.597C918.01 247.597 917.29 248.1 916.77 249.106C916.25 250.098 915.99 251.628 915.99 253.694ZM918.93 259.792C919.863 259.792 920.59 259.295 921.11 258.303C921.63 257.297 921.89 255.761 921.89 253.694C921.89 251.94 921.723 250.581 921.39 249.616L916.95 258.731C917.43 259.438 918.09 259.792 918.93 259.792Z" fill="url(#paint57_linear_175_198)"/>
<path d="M920.13 282.934H923.07V284.015H915.45V282.934H918.85V271.474L915.61 273.452L915.05 272.534L919.05 270.005H920.13V282.934Z" fill="url(#paint58_linear_175_198)"/>
<path d="M920.13 306.24H923.07V307.321H915.45V306.24H918.85V294.779L915.61 296.757L915.05 295.84L919.05 293.311H920.13V306.24Z" fill="url(#paint59_linear_175_198)"/>
<path d="M956.07 60.0489C957.497 60.0489 958.577 60.6675 959.31 61.9047C960.057 63.1282 960.43 64.9092 960.43 67.2475C960.43 69.5859 960.057 71.3736 959.31 72.6108C958.577 73.8479 957.497 74.4665 956.07 74.4665C954.657 74.4665 953.577 73.8479 952.83 72.6108C952.084 71.3736 951.71 69.5859 951.71 67.2475C951.71 64.9228 952.084 63.1418 952.83 61.9047C953.577 60.6675 954.657 60.0489 956.07 60.0489ZM953.13 67.2475C953.13 68.9061 953.277 70.2045 953.57 71.1425L958.01 62.1086C957.543 61.4696 956.897 61.1501 956.07 61.1501C955.15 61.1501 954.43 61.6532 953.91 62.6592C953.39 63.6516 953.13 65.1811 953.13 67.2475ZM956.07 73.3449C957.003 73.3449 957.73 72.8487 958.25 71.8563C958.77 70.8502 959.03 69.314 959.03 67.2475C959.03 65.4938 958.863 64.1343 958.53 63.169L954.09 72.2845C954.57 72.9914 955.23 73.3449 956.07 73.3449Z" fill="url(#paint60_linear_175_198)"/>
<path d="M957.27 96.4876H960.21V97.5684H952.59V96.4876H955.99V85.027L952.75 87.005L952.19 86.0874L956.19 83.5587H957.27V96.4876Z" fill="url(#paint61_linear_175_198)"/>
<path d="M956.07 106.661C957.497 106.661 958.577 107.279 959.31 108.516C960.057 109.74 960.43 111.521 960.43 113.859C960.43 116.198 960.057 117.985 959.31 119.222C958.577 120.46 957.497 121.078 956.07 121.078C954.657 121.078 953.577 120.46 952.83 119.222C952.084 117.985 951.71 116.198 951.71 113.859C951.71 111.534 952.084 109.753 952.83 108.516C953.577 107.279 954.657 106.661 956.07 106.661ZM953.13 113.859C953.13 115.518 953.277 116.816 953.57 117.754L958.01 108.72C957.543 108.081 956.897 107.762 956.07 107.762C955.15 107.762 954.43 108.265 953.91 109.271C953.39 110.263 953.13 111.793 953.13 113.859ZM956.07 119.957C957.003 119.957 957.73 119.46 958.25 118.468C958.77 117.462 959.03 115.926 959.03 113.859C959.03 112.105 958.863 110.746 958.53 109.781L954.09 118.896C954.57 119.603 955.23 119.957 956.07 119.957Z" fill="url(#paint62_linear_175_198)"/>
<path d="M956.07 129.966C957.497 129.966 958.577 130.585 959.31 131.822C960.057 133.046 960.43 134.827 960.43 137.165C960.43 139.503 960.057 141.291 959.31 142.528C958.577 143.765 957.497 144.384 956.07 144.384C954.657 144.384 953.577 143.765 952.83 142.528C952.084 141.291 951.71 139.503 951.71 137.165C951.71 134.84 952.084 133.059 952.83 131.822C953.577 130.585 954.657 129.966 956.07 129.966ZM953.13 137.165C953.13 138.824 953.277 140.122 953.57 141.06L958.01 132.026C957.543 131.387 956.897 131.068 956.07 131.068C955.15 131.068 954.43 131.571 953.91 132.577C953.39 133.569 953.13 135.099 953.13 137.165ZM956.07 143.262C957.003 143.262 957.73 142.766 958.25 141.774C958.77 140.768 959.03 139.231 959.03 137.165C959.03 135.411 958.863 134.052 958.53 133.086L954.09 142.202C954.57 142.909 955.23 143.262 956.07 143.262Z" fill="url(#paint63_linear_175_198)"/>
<path d="M957.27 166.405H960.21V167.486H952.59V166.405H955.99V154.944L952.75 156.923L952.19 156.005L956.19 153.476H957.27V166.405Z" fill="url(#paint64_linear_175_198)"/>
<path d="M956.07 176.578C957.497 176.578 958.577 177.197 959.31 178.434C960.057 179.657 960.43 181.438 960.43 183.777C960.43 186.115 960.057 187.903 959.31 189.14C958.577 190.377 957.497 190.996 956.07 190.996C954.657 190.996 953.577 190.377 952.83 189.14C952.084 187.903 951.71 186.115 951.71 183.777C951.71 181.452 952.084 179.671 952.83 178.434C953.577 177.197 954.657 176.578 956.07 176.578ZM953.13 183.777C953.13 185.435 953.277 186.734 953.57 187.672L958.01 178.638C957.543 177.999 956.897 177.679 956.07 177.679C955.15 177.679 954.43 178.182 953.91 179.188C953.39 180.181 953.13 181.71 953.13 183.777ZM956.07 189.874C957.003 189.874 957.73 189.378 958.25 188.385C958.77 187.379 959.03 185.843 959.03 183.777C959.03 182.023 958.863 180.663 958.53 179.698L954.09 188.814C954.57 189.521 955.23 189.874 956.07 189.874Z" fill="url(#paint65_linear_175_198)"/>
<path d="M957.27 213.017H960.21V214.098H952.59V213.017H955.99V201.556L952.75 203.534L952.19 202.617L956.19 200.088H957.27V213.017Z" fill="url(#paint66_linear_175_198)"/>
<path d="M956.07 223.19C957.497 223.19 958.577 223.808 959.31 225.045C960.057 226.269 960.43 228.05 960.43 230.388C960.43 232.727 960.057 234.514 959.31 235.752C958.577 236.989 957.497 237.607 956.07 237.607C954.657 237.607 953.577 236.989 952.83 235.752C952.084 234.514 951.71 232.727 951.71 230.388C951.71 228.064 952.084 226.283 952.83 225.045C953.577 223.808 954.657 223.19 956.07 223.19ZM953.13 230.388C953.13 232.047 953.277 233.345 953.57 234.283L958.01 225.249C957.543 224.61 956.897 224.291 956.07 224.291C955.15 224.291 954.43 224.794 953.91 225.8C953.39 226.792 953.13 228.322 953.13 230.388ZM956.07 236.486C957.003 236.486 957.73 235.989 958.25 234.997C958.77 233.991 959.03 232.455 959.03 230.388C959.03 228.635 958.863 227.275 958.53 226.31L954.09 235.425C954.57 236.132 955.23 236.486 956.07 236.486Z" fill="url(#paint67_linear_175_198)"/>
<path d="M956.07 246.496C957.497 246.496 958.577 247.114 959.31 248.351C960.057 249.575 960.43 251.356 960.43 253.694C960.43 256.032 960.057 257.82 959.31 259.057C958.577 260.295 957.497 260.913 956.07 260.913C954.657 260.913 953.577 260.295 952.83 259.057C952.084 257.82 951.71 256.032 951.71 253.694C951.71 251.369 952.084 249.588 952.83 248.351C953.577 247.114 954.657 246.496 956.07 246.496ZM953.13 253.694C953.13 255.353 953.277 256.651 953.57 257.589L958.01 248.555C957.543 247.916 956.897 247.597 956.07 247.597C955.15 247.597 954.43 248.1 953.91 249.106C953.39 250.098 953.13 251.628 953.13 253.694ZM956.07 259.792C957.003 259.792 957.73 259.295 958.25 258.303C958.77 257.297 959.03 255.761 959.03 253.694C959.03 251.94 958.863 250.581 958.53 249.616L954.09 258.731C954.57 259.438 955.23 259.792 956.07 259.792Z" fill="url(#paint68_linear_175_198)"/>
<path d="M957.27 282.934H960.21V284.015H952.59V282.934H955.99V271.474L952.75 273.452L952.19 272.534L956.19 270.005H957.27V282.934Z" fill="url(#paint69_linear_175_198)"/>
<path d="M956.07 293.107C957.497 293.107 958.577 293.726 959.31 294.963C960.057 296.186 960.43 297.967 960.43 300.306C960.43 302.644 960.057 304.432 959.31 305.669C958.577 306.906 957.497 307.525 956.07 307.525C954.657 307.525 953.577 306.906 952.83 305.669C952.084 304.432 951.71 302.644 951.71 300.306C951.71 297.981 952.084 296.2 952.83 294.963C953.577 293.726 954.657 293.107 956.07 293.107ZM953.13 300.306C953.13 301.964 953.277 303.263 953.57 304.201L958.01 295.167C957.543 294.528 956.897 294.208 956.07 294.208C955.15 294.208 954.43 294.711 953.91 295.717C953.39 296.71 953.13 298.239 953.13 300.306ZM956.07 306.403C957.003 306.403 957.73 305.907 958.25 304.915C958.77 303.908 959.03 302.372 959.03 300.306C959.03 298.552 958.863 297.193 958.53 296.227L954.09 305.343C954.57 306.05 955.23 306.403 956.07 306.403Z" fill="url(#paint70_linear_175_198)"/>
<path d="M957.27 329.546H960.21V330.627H952.59V329.546H955.99V318.085L952.75 320.063L952.19 319.146L956.19 316.617H957.27V329.546Z" fill="url(#paint71_linear_175_198)"/>
<path d="M957.27 352.852H960.21V353.933H952.59V352.852H955.99V341.391L952.75 343.369L952.19 342.451L956.19 339.923H957.27V352.852Z" fill="url(#paint72_linear_175_198)"/>
<path d="M900.36 83.3548C901.786 83.3548 902.866 83.9733 903.599 85.2105C904.346 86.4341 904.719 88.215 904.719 90.5534C904.719 92.8917 904.346 94.6795 903.599 95.9166C902.866 97.1538 901.786 97.7723 900.36 97.7723C898.946 97.7723 897.867 97.1538 897.12 95.9166C896.373 94.6795 896 92.8917 896 90.5534C896 88.2286 896.373 86.4477 897.12 85.2105C897.867 83.9733 898.946 83.3548 900.36 83.3548ZM897.42 90.5534C897.42 92.212 897.567 93.5103 897.86 94.4483L902.3 85.4144C901.833 84.7755 901.186 84.456 900.36 84.456C899.44 84.456 898.72 84.959 898.2 85.965C897.68 86.9575 897.42 88.4869 897.42 90.5534ZM900.36 96.6507C901.293 96.6507 902.02 96.1545 902.54 95.1621C903.06 94.156 903.319 92.6198 903.319 90.5534C903.319 88.7996 903.153 87.4401 902.82 86.4748L898.38 95.5903C898.86 96.2973 899.52 96.6507 900.36 96.6507Z" fill="url(#paint73_linear_175_198)"/>
<path d="M900.36 106.661C901.786 106.661 902.866 107.279 903.599 108.516C904.346 109.74 904.719 111.521 904.719 113.859C904.719 116.198 904.346 117.985 903.599 119.222C902.866 120.46 901.786 121.078 900.36 121.078C898.946 121.078 897.867 120.46 897.12 119.222C896.373 117.985 896 116.198 896 113.859C896 111.534 896.373 109.753 897.12 108.516C897.867 107.279 898.946 106.661 900.36 106.661ZM897.42 113.859C897.42 115.518 897.567 116.816 897.86 117.754L902.3 108.72C901.833 108.081 901.186 107.762 900.36 107.762C899.44 107.762 898.72 108.265 898.2 109.271C897.68 110.263 897.42 111.793 897.42 113.859ZM900.36 119.957C901.293 119.957 902.02 119.46 902.54 118.468C903.06 117.462 903.319 115.926 903.319 113.859C903.319 112.105 903.153 110.746 902.82 109.781L898.38 118.896C898.86 119.603 899.52 119.957 900.36 119.957Z" fill="url(#paint74_linear_175_198)"/>
<path d="M901.56 143.099H904.499V144.18H896.88V143.099H900.28V131.639L897.04 133.617L896.48 132.699L900.48 130.17H901.56V143.099Z" fill="url(#paint75_linear_175_198)"/>
<path d="M900.36 153.272C901.786 153.272 902.866 153.891 903.599 155.128C904.346 156.352 904.719 158.132 904.719 160.471C904.719 162.809 904.346 164.597 903.599 165.834C902.866 167.071 901.786 167.69 900.36 167.69C898.946 167.69 897.867 167.071 897.12 165.834C896.373 164.597 896 162.809 896 160.471C896 158.146 896.373 156.365 897.12 155.128C897.867 153.891 898.946 153.272 900.36 153.272ZM897.42 160.471C897.42 162.129 897.567 163.428 897.86 164.366L902.3 155.332C901.833 154.693 901.186 154.373 900.36 154.373C899.44 154.373 898.72 154.876 898.2 155.883C897.68 156.875 897.42 158.404 897.42 160.471ZM900.36 166.568C901.293 166.568 902.02 166.072 902.54 165.08C903.06 164.074 903.319 162.537 903.319 160.471C903.319 158.717 903.153 157.358 902.82 156.392L898.38 165.508C898.86 166.215 899.52 166.568 900.36 166.568Z" fill="url(#paint76_linear_175_198)"/>
<path d="M901.56 189.711H904.499V190.792H896.88V189.711H900.28V178.25L897.04 180.228L896.48 179.311L900.48 176.782H901.56V189.711Z" fill="url(#paint77_linear_175_198)"/>
<path d="M901.56 213.017H904.499V214.098H896.88V213.017H900.28V201.556L897.04 203.534L896.48 202.617L900.48 200.088H901.56V213.017Z" fill="url(#paint78_linear_175_198)"/>
<path d="M938.7 49.8759H941.64V50.9568H934.02V49.8759H937.42V38.4153L934.18 40.3934L933.62 39.4757L937.62 36.947H938.7V49.8759Z" fill="url(#paint79_linear_175_198)"/>
<path d="M937.5 60.0489C938.927 60.0489 940.006 60.6675 940.74 61.9047C941.486 63.1282 941.86 64.9092 941.86 67.2475C941.86 69.5859 941.486 71.3736 940.74 72.6108C940.006 73.8479 938.927 74.4665 937.5 74.4665C936.087 74.4665 935.007 73.8479 934.26 72.6108C933.514 71.3736 933.14 69.5859 933.14 67.2475C933.14 64.9228 933.514 63.1418 934.26 61.9047C935.007 60.6675 936.087 60.0489 937.5 60.0489ZM934.56 67.2475C934.56 68.9061 934.707 70.2045 935 71.1425L939.44 62.1086C938.973 61.4696 938.327 61.1501 937.5 61.1501C936.58 61.1501 935.86 61.6532 935.34 62.6592C934.82 63.6516 934.56 65.1811 934.56 67.2475ZM937.5 73.3449C938.433 73.3449 939.16 72.8487 939.68 71.8563C940.2 70.8502 940.46 69.314 940.46 67.2475C940.46 65.4938 940.293 64.1343 939.96 63.169L935.52 72.2845C936 72.9914 936.66 73.3449 937.5 73.3449Z" fill="url(#paint80_linear_175_198)"/>
<path d="M938.7 96.4876H941.64V97.5684H934.02V96.4876H937.42V85.027L934.18 87.005L933.62 86.0874L937.62 83.5587H938.7V96.4876Z" fill="url(#paint81_linear_175_198)"/>
<path d="M938.7 119.793H941.64V120.874H934.02V119.793H937.42V108.333L934.18 110.311L933.62 109.393L937.62 106.865H938.7V119.793Z" fill="url(#paint82_linear_175_198)"/>
<path d="M937.5 129.966C938.927 129.966 940.006 130.585 940.74 131.822C941.486 133.046 941.86 134.827 941.86 137.165C941.86 139.503 941.486 141.291 940.74 142.528C940.006 143.765 938.927 144.384 937.5 144.384C936.087 144.384 935.007 143.765 934.26 142.528C933.514 141.291 933.14 139.503 933.14 137.165C933.14 134.84 933.514 133.059 934.26 131.822C935.007 130.585 936.087 129.966 937.5 129.966ZM934.56 137.165C934.56 138.824 934.707 140.122 935 141.06L939.44 132.026C938.973 131.387 938.327 131.068 937.5 131.068C936.58 131.068 935.86 131.571 935.34 132.577C934.82 133.569 934.56 135.099 934.56 137.165ZM937.5 143.262C938.433 143.262 939.16 142.766 939.68 141.774C940.2 140.768 940.46 139.231 940.46 137.165C940.46 135.411 940.293 134.052 939.96 133.086L935.52 142.202C936 142.909 936.66 143.262 937.5 143.262Z" fill="url(#paint83_linear_175_198)"/>
<path d="M938.7 166.405H941.64V167.486H934.02V166.405H937.42V154.944L934.18 156.923L933.62 156.005L937.62 153.476H938.7V166.405Z" fill="url(#paint84_linear_175_198)"/>
<path d="M938.7 189.711H941.64V190.792H934.02V189.711H937.42V178.25L934.18 180.228L933.62 179.311L937.62 176.782H938.7V189.711Z" fill="url(#paint85_linear_175_198)"/>
<path d="M937.5 199.884C938.927 199.884 940.006 200.502 940.74 201.74C941.486 202.963 941.86 204.744 941.86 207.083C941.86 209.421 941.486 211.209 940.74 212.446C940.006 213.683 938.927 214.301 937.5 214.301C936.087 214.301 935.007 213.683 934.26 212.446C933.514 211.209 933.14 209.421 933.14 207.083C933.14 204.758 933.514 202.977 934.26 201.74C935.007 200.502 936.087 199.884 937.5 199.884ZM934.56 207.083C934.56 208.741 934.707 210.039 935 210.977L939.44 201.944C938.973 201.305 938.327 200.985 937.5 200.985C936.58 200.985 935.86 201.488 935.34 202.494C934.82 203.487 934.56 205.016 934.56 207.083ZM937.5 213.18C938.433 213.18 939.16 212.684 939.68 211.691C940.2 210.685 940.46 209.149 940.46 207.083C940.46 205.329 940.293 203.969 939.96 203.004L935.52 212.119C936 212.826 936.66 213.18 937.5 213.18Z" fill="url(#paint86_linear_175_198)"/>
<path d="M938.7 236.323H941.64V237.403H934.02V236.323H937.42V224.862L934.18 226.84L933.62 225.922L937.62 223.394H938.7V236.323Z" fill="url(#paint87_linear_175_198)"/>
<path d="M937.5 246.496C938.927 246.496 940.006 247.114 940.74 248.351C941.486 249.575 941.86 251.356 941.86 253.694C941.86 256.032 941.486 257.82 940.74 259.057C940.006 260.295 938.927 260.913 937.5 260.913C936.087 260.913 935.007 260.295 934.26 259.057C933.514 257.82 933.14 256.032 933.14 253.694C933.14 251.369 933.514 249.588 934.26 248.351C935.007 247.114 936.087 246.496 937.5 246.496ZM934.56 253.694C934.56 255.353 934.707 256.651 935 257.589L939.44 248.555C938.973 247.916 938.327 247.597 937.5 247.597C936.58 247.597 935.86 248.1 935.34 249.106C934.82 250.098 934.56 251.628 934.56 253.694ZM937.5 259.792C938.433 259.792 939.16 259.295 939.68 258.303C940.2 257.297 940.46 255.761 940.46 253.694C940.46 251.94 940.293 250.581 939.96 249.616L935.52 258.731C936 259.438 936.66 259.792 937.5 259.792Z" fill="url(#paint88_linear_175_198)"/>
<path d="M974.64 36.7431C976.067 36.7431 977.147 37.3617 977.88 38.5988C978.627 39.8224 979 41.6033 979 43.9417C979 46.2801 978.627 48.0678 977.88 49.305C977.147 50.5421 976.067 51.1607 974.64 51.1607C973.227 51.1607 972.147 50.5421 971.401 49.305C970.654 48.0678 970.281 46.2801 970.281 43.9417C970.281 41.6169 970.654 39.836 971.401 38.5988C972.147 37.3617 973.227 36.7431 974.64 36.7431ZM971.7 43.9417C971.7 45.6003 971.847 46.8986 972.14 47.8367L976.58 38.8028C976.114 38.1638 975.467 37.8443 974.64 37.8443C973.72 37.8443 973 38.3473 972.48 39.3534C971.96 40.3458 971.7 41.8752 971.7 43.9417ZM974.64 50.0391C975.574 50.0391 976.3 49.5429 976.82 48.5504C977.34 47.5444 977.6 46.0081 977.6 43.9417C977.6 42.1879 977.433 40.8284 977.1 39.8632L972.66 48.9787C973.14 49.6856 973.8 50.0391 974.64 50.0391Z" fill="url(#paint89_linear_175_198)"/>
<path d="M975.84 73.1818H978.78V74.2626H971.161V73.1818H974.56V61.7211L971.321 63.6992L970.761 62.7815L974.76 60.2529H975.84V73.1818Z" fill="url(#paint90_linear_175_198)"/>
<path d="M975.84 96.4876H978.78V97.5684H971.161V96.4876H974.56V85.027L971.321 87.005L970.761 86.0874L974.76 83.5587H975.84V96.4876Z" fill="url(#paint91_linear_175_198)"/>
<path d="M974.64 106.661C976.067 106.661 977.147 107.279 977.88 108.516C978.627 109.74 979 111.521 979 113.859C979 116.198 978.627 117.985 977.88 119.222C977.147 120.46 976.067 121.078 974.64 121.078C973.227 121.078 972.147 120.46 971.401 119.222C970.654 117.985 970.281 116.198 970.281 113.859C970.281 111.534 970.654 109.753 971.401 108.516C972.147 107.279 973.227 106.661 974.64 106.661ZM971.7 113.859C971.7 115.518 971.847 116.816 972.14 117.754L976.58 108.72C976.114 108.081 975.467 107.762 974.64 107.762C973.72 107.762 973 108.265 972.48 109.271C971.96 110.263 971.7 111.793 971.7 113.859ZM974.64 119.957C975.574 119.957 976.3 119.46 976.82 118.468C977.34 117.462 977.6 115.926 977.6 113.859C977.6 112.105 977.433 110.746 977.1 109.781L972.66 118.896C973.14 119.603 973.8 119.957 974.64 119.957Z" fill="url(#paint92_linear_175_198)"/>
<path d="M974.64 129.966C976.067 129.966 977.147 130.585 977.88 131.822C978.627 133.046 979 134.827 979 137.165C979 139.503 978.627 141.291 977.88 142.528C977.147 143.765 976.067 144.384 974.64 144.384C973.227 144.384 972.147 143.765 971.401 142.528C970.654 141.291 970.281 139.503 970.281 137.165C970.281 134.84 970.654 133.059 971.401 131.822C972.147 130.585 973.227 129.966 974.64 129.966ZM971.7 137.165C971.7 138.824 971.847 140.122 972.14 141.06L976.58 132.026C976.114 131.387 975.467 131.068 974.64 131.068C973.72 131.068 973 131.571 972.48 132.577C971.96 133.569 971.7 135.099 971.7 137.165ZM974.64 143.262C975.574 143.262 976.3 142.766 976.82 141.774C977.34 140.768 977.6 139.231 977.6 137.165C977.6 135.411 977.433 134.052 977.1 133.086L972.66 142.202C973.14 142.909 973.8 143.262 974.64 143.262Z" fill="url(#paint93_linear_175_198)"/>
</g>
<defs>
<filter id="filter0_f_175_198" x="-559.19" y="-679.19" width="2141.38" height="1516.14" filterUnits="userSpaceOnUse" color-interpolation-filters="sRGB">
<feFlood flood-opacity="0" result="BackgroundImageFix"/>
<feBlend mode="normal" in="SourceGraphic" in2="BackgroundImageFix" result="shape"/>
<feGaussianBlur stdDeviation="200.095" result="effect1_foregroundBlur_175_198"/>
</filter>
<linearGradient id="paint0_linear_175_198" x1="51.5" y1="320.19" x2="51.5" y2="638.579" gradientUnits="userSpaceOnUse">
<stop stop-color="#F7DD43"/>
<stop offset="1" stop-color="#F7DD43" stop-opacity="0"/>
</linearGradient>
<linearGradient id="paint1_linear_175_198" x1="51.5" y1="320.19" x2="51.5" y2="638.579" gradientUnits="userSpaceOnUse">
<stop stop-color="#F7DD43"/>
<stop offset="1" stop-color="#F7DD43" stop-opacity="0"/>
</linearGradient>
<linearGradient id="paint2_linear_175_198" x1="51.5" y1="320.19" x2="51.5" y2="638.579" gradientUnits="userSpaceOnUse">
<stop stop-color="#F7DD43"/>
<stop offset="1" stop-color="#F7DD43" stop-opacity="0"/>
</linearGradient>
<linearGradient id="paint3_linear_175_198" x1="51.5" y1="320.19" x2="51.5" y2="638.579" gradientUnits="userSpaceOnUse">
<stop stop-color="#F7DD43"/>
<stop offset="1" stop-color="#F7DD43" stop-opacity="0"/>
</linearGradient>
<linearGradient id="paint4_linear_175_198" x1="51.5" y1="320.19" x2="51.5" y2="638.579" gradientUnits="userSpaceOnUse">
<stop stop-color="#F7DD43"/>
<stop offset="1" stop-color="#F7DD43" stop-opacity="0"/>
</linearGradient>
<linearGradient id="paint5_linear_175_198" x1="51.5" y1="320.19" x2="51.5" y2="638.579" gradientUnits="userSpaceOnUse">
<stop stop-color="#F7DD43"/>
<stop offset="1" stop-color="#F7DD43" stop-opacity="0"/>
</linearGradient>
<linearGradient id="paint6_linear_175_198" x1="51.5" y1="320.19" x2="51.5" y2="638.579" gradientUnits="userSpaceOnUse">
<stop stop-color="#F7DD43"/>
<stop offset="1" stop-color="#F7DD43" stop-opacity="0"/>
</linearGradient>
<linearGradient id="paint7_linear_175_198" x1="51.5" y1="320.19" x2="51.5" y2="638.579" gradientUnits="userSpaceOnUse">
<stop stop-color="#F7DD43"/>
<stop offset="1" stop-color="#F7DD43" stop-opacity="0"/>
</linearGradient>
<linearGradient id="paint8_linear_175_198" x1="51.5" y1="320.19" x2="51.5" y2="638.579" gradientUnits="userSpaceOnUse">
<stop stop-color="#F7DD43"/>
<stop offset="1" stop-color="#F7DD43" stop-opacity="0"/>
</linearGradient>
<linearGradient id="paint9_linear_175_198" x1="51.5" y1="320.19" x2="51.5" y2="638.579" gradientUnits="userSpaceOnUse">
<stop stop-color="#F7DD43"/>
<stop offset="1" stop-color="#F7DD43" stop-opacity="0"/>
</linearGradient>
<linearGradient id="paint10_linear_175_198" x1="51.5" y1="320.19" x2="51.5" y2="638.579" gradientUnits="userSpaceOnUse">
<stop stop-color="#F7DD43"/>
<stop offset="1" stop-color="#F7DD43" stop-opacity="0"/>
</linearGradient>
<linearGradient id="paint11_linear_175_198" x1="51.5" y1="320.19" x2="51.5" y2="638.579" gradientUnits="userSpaceOnUse">
<stop stop-color="#F7DD43"/>
<stop offset="1" stop-color="#F7DD43" stop-opacity="0"/>
</linearGradient>
<linearGradient id="paint12_linear_175_198" x1="51.5" y1="320.19" x2="51.5" y2="638.579" gradientUnits="userSpaceOnUse">
<stop stop-color="#F7DD43"/>
<stop offset="1" stop-color="#F7DD43" stop-opacity="0"/>
</linearGradient>
<linearGradient id="paint13_linear_175_198" x1="51.5" y1="320.19" x2="51.5" y2="638.579" gradientUnits="userSpaceOnUse">
<stop stop-color="#F7DD43"/>
<stop offset="1" stop-color="#F7DD43" stop-opacity="0"/>
</linearGradient>
<linearGradient id="paint14_linear_175_198" x1="51.5" y1="320.19" x2="51.5" y2="638.579" gradientUnits="userSpaceOnUse">
<stop stop-color="#F7DD43"/>
<stop offset="1" stop-color="#F7DD43" stop-opacity="0"/>
</linearGradient>
<linearGradient id="paint15_linear_175_198" x1="51.5" y1="320.19" x2="51.5" y2="638.579" gradientUnits="userSpaceOnUse">
<stop stop-color="#F7DD43"/>
<stop offset="1" stop-color="#F7DD43" stop-opacity="0"/>
</linearGradient>
<linearGradient id="paint16_linear_175_198" x1="51.5" y1="320.19" x2="51.5" y2="638.579" gradientUnits="userSpaceOnUse">
<stop stop-color="#F7DD43"/>
<stop offset="1" stop-color="#F7DD43" stop-opacity="0"/>
</linearGradient>
<linearGradient id="paint17_linear_175_198" x1="51.5" y1="320.19" x2="51.5" y2="638.579" gradientUnits="userSpaceOnUse">
<stop stop-color="#F7DD43"/>
<stop offset="1" stop-color="#F7DD43" stop-opacity="0"/>
</linearGradient>
<linearGradient id="paint18_linear_175_198" x1="51.5" y1="320.19" x2="51.5" y2="638.579" gradientUnits="userSpaceOnUse">
<stop stop-color="#F7DD43"/>
<stop offset="1" stop-color="#F7DD43" stop-opacity="0"/>
</linearGradient>
<linearGradient id="paint19_linear_175_198" x1="51.5" y1="320.19" x2="51.5" y2="638.579" gradientUnits="userSpaceOnUse">
<stop stop-color="#F7DD43"/>
<stop offset="1" stop-color="#F7DD43" stop-opacity="0"/>
</linearGradient>
<linearGradient id="paint20_linear_175_198" x1="51.5" y1="320.19" x2="51.5" y2="638.579" gradientUnits="userSpaceOnUse">
<stop stop-color="#F7DD43"/>
<stop offset="1" stop-color="#F7DD43" stop-opacity="0"/>
</linearGradient>
<linearGradient id="paint21_linear_175_198" x1="51.5" y1="320.19" x2="51.5" y2="638.579" gradientUnits="userSpaceOnUse">
<stop stop-color="#F7DD43"/>
<stop offset="1" stop-color="#F7DD43" stop-opacity="0"/>
</linearGradient>
<linearGradient id="paint22_linear_175_198" x1="51.5" y1="320.19" x2="51.5" y2="638.579" gradientUnits="userSpaceOnUse">
<stop stop-color="#F7DD43"/>
<stop offset="1" stop-color="#F7DD43" stop-opacity="0"/>
</linearGradient>
<linearGradient id="paint23_linear_175_198" x1="51.5" y1="320.19" x2="51.5" y2="638.579" gradientUnits="userSpaceOnUse">
<stop stop-color="#F7DD43"/>
<stop offset="1" stop-color="#F7DD43" stop-opacity="0"/>
</linearGradient>
<linearGradient id="paint24_linear_175_198" x1="51.5" y1="320.19" x2="51.5" y2="638.579" gradientUnits="userSpaceOnUse">
<stop stop-color="#F7DD43"/>
<stop offset="1" stop-color="#F7DD43" stop-opacity="0"/>
</linearGradient>
<linearGradient id="paint25_linear_175_198" x1="51.5" y1="320.19" x2="51.5" y2="638.579" gradientUnits="userSpaceOnUse">
<stop stop-color="#F7DD43"/>
<stop offset="1" stop-color="#F7DD43" stop-opacity="0"/>
</linearGradient>
<linearGradient id="paint26_linear_175_198" x1="51.5" y1="320.19" x2="51.5" y2="638.579" gradientUnits="userSpaceOnUse">
<stop stop-color="#F7DD43"/>
<stop offset="1" stop-color="#F7DD43" stop-opacity="0"/>
</linearGradient>
<linearGradient id="paint27_linear_175_198" x1="51.5" y1="320.19" x2="51.5" y2="638.579" gradientUnits="userSpaceOnUse">
<stop stop-color="#F7DD43"/>
<stop offset="1" stop-color="#F7DD43" stop-opacity="0"/>
</linearGradient>
<linearGradient id="paint28_linear_175_198" x1="51.5" y1="320.19" x2="51.5" y2="638.579" gradientUnits="userSpaceOnUse">
<stop stop-color="#F7DD43"/>
<stop offset="1" stop-color="#F7DD43" stop-opacity="0"/>
</linearGradient>
<linearGradient id="paint29_linear_175_198" x1="51.5" y1="320.19" x2="51.5" y2="638.579" gradientUnits="userSpaceOnUse">
<stop stop-color="#F7DD43"/>
<stop offset="1" stop-color="#F7DD43" stop-opacity="0"/>
</linearGradient>
<linearGradient id="paint30_linear_175_198" x1="51.5" y1="320.19" x2="51.5" y2="638.579" gradientUnits="userSpaceOnUse">
<stop stop-color="#F7DD43"/>
<stop offset="1" stop-color="#F7DD43" stop-opacity="0"/>
</linearGradient>
<linearGradient id="paint31_linear_175_198" x1="51.5" y1="320.19" x2="51.5" y2="638.579" gradientUnits="userSpaceOnUse">
<stop stop-color="#F7DD43"/>
<stop offset="1" stop-color="#F7DD43" stop-opacity="0"/>
</linearGradient>
<linearGradient id="paint32_linear_175_198" x1="51.5" y1="320.19" x2="51.5" y2="638.579" gradientUnits="userSpaceOnUse">
<stop stop-color="#F7DD43"/>
<stop offset="1" stop-color="#F7DD43" stop-opacity="0"/>
</linearGradient>
<linearGradient id="paint33_linear_175_198" x1="51.5" y1="320.19" x2="51.5" y2="638.579" gradientUnits="userSpaceOnUse">
<stop stop-color="#F7DD43"/>
<stop offset="1" stop-color="#F7DD43" stop-opacity="0"/>
</linearGradient>
<linearGradient id="paint34_linear_175_198" x1="51.5" y1="320.19" x2="51.5" y2="638.579" gradientUnits="userSpaceOnUse">
<stop stop-color="#F7DD43"/>
<stop offset="1" stop-color="#F7DD43" stop-opacity="0"/>
</linearGradient>
<linearGradient id="paint35_linear_175_198" x1="51.5" y1="320.19" x2="51.5" y2="638.579" gradientUnits="userSpaceOnUse">
<stop stop-color="#F7DD43"/>
<stop offset="1" stop-color="#F7DD43" stop-opacity="0"/>
</linearGradient>
<linearGradient id="paint36_linear_175_198" x1="51.5" y1="320.19" x2="51.5" y2="638.579" gradientUnits="userSpaceOnUse">
<stop stop-color="#F7DD43"/>
<stop offset="1" stop-color="#F7DD43" stop-opacity="0"/>
</linearGradient>
<linearGradient id="paint37_linear_175_198" x1="51.5" y1="320.19" x2="51.5" y2="638.579" gradientUnits="userSpaceOnUse">
<stop stop-color="#F7DD43"/>
<stop offset="1" stop-color="#F7DD43" stop-opacity="0"/>
</linearGradient>
<linearGradient id="paint38_linear_175_198" x1="51.5" y1="320.19" x2="51.5" y2="638.579" gradientUnits="userSpaceOnUse">
<stop stop-color="#F7DD43"/>
<stop offset="1" stop-color="#F7DD43" stop-opacity="0"/>
</linearGradient>
<linearGradient id="paint39_linear_175_198" x1="51.5" y1="320.19" x2="51.5" y2="638.579" gradientUnits="userSpaceOnUse">
<stop stop-color="#F7DD43"/>
<stop offset="1" stop-color="#F7DD43" stop-opacity="0"/>
</linearGradient>
<linearGradient id="paint40_linear_175_198" x1="51.5" y1="320.19" x2="51.5" y2="638.579" gradientUnits="userSpaceOnUse">
<stop stop-color="#F7DD43"/>
<stop offset="1" stop-color="#F7DD43" stop-opacity="0"/>
</linearGradient>
<linearGradient id="paint41_linear_175_198" x1="51.5" y1="320.19" x2="51.5" y2="638.579" gradientUnits="userSpaceOnUse">
<stop stop-color="#F7DD43"/>
<stop offset="1" stop-color="#F7DD43" stop-opacity="0"/>
</linearGradient>
<linearGradient id="paint42_linear_175_198" x1="51.5" y1="320.19" x2="51.5" y2="638.579" gradientUnits="userSpaceOnUse">
<stop stop-color="#F7DD43"/>
<stop offset="1" stop-color="#F7DD43" stop-opacity="0"/>
</linearGradient>
<linearGradient id="paint43_linear_175_198" x1="51.5" y1="320.19" x2="51.5" y2="638.579" gradientUnits="userSpaceOnUse">
<stop stop-color="#F7DD43"/>
<stop offset="1" stop-color="#F7DD43" stop-opacity="0"/>
</linearGradient>
<linearGradient id="paint44_linear_175_198" x1="51.5" y1="320.19" x2="51.5" y2="638.579" gradientUnits="userSpaceOnUse">
<stop stop-color="#F7DD43"/>
<stop offset="1" stop-color="#F7DD43" stop-opacity="0"/>
</linearGradient>
<linearGradient id="paint45_linear_175_198" x1="51.5" y1="320.19" x2="51.5" y2="638.579" gradientUnits="userSpaceOnUse">
<stop stop-color="#F7DD43"/>
<stop offset="1" stop-color="#F7DD43" stop-opacity="0"/>
</linearGradient>
<linearGradient id="paint46_linear_175_198" x1="51.5" y1="320.19" x2="51.5" y2="638.579" gradientUnits="userSpaceOnUse">
<stop stop-color="#F7DD43"/>
<stop offset="1" stop-color="#F7DD43" stop-opacity="0"/>
</linearGradient>
<linearGradient id="paint47_linear_175_198" x1="937.5" y1="13.4373" x2="937.5" y2="318.981" gradientUnits="userSpaceOnUse">
<stop stop-color="#F7DD43"/>
<stop offset="1" stop-color="#F7DD43" stop-opacity="0"/>
</linearGradient>
<linearGradient id="paint48_linear_175_198" x1="937.5" y1="13.4373" x2="937.5" y2="318.981" gradientUnits="userSpaceOnUse">
<stop stop-color="#F7DD43"/>
<stop offset="1" stop-color="#F7DD43" stop-opacity="0"/>
</linearGradient>
<linearGradient id="paint49_linear_175_198" x1="937.5" y1="13.4373" x2="937.5" y2="318.981" gradientUnits="userSpaceOnUse">
<stop stop-color="#F7DD43"/>
<stop offset="1" stop-color="#F7DD43" stop-opacity="0"/>
</linearGradient>
<linearGradient id="paint50_linear_175_198" x1="937.5" y1="13.4373" x2="937.5" y2="318.981" gradientUnits="userSpaceOnUse">
<stop stop-color="#F7DD43"/>
<stop offset="1" stop-color="#F7DD43" stop-opacity="0"/>
</linearGradient>
<linearGradient id="paint51_linear_175_198" x1="937.5" y1="13.4373" x2="937.5" y2="318.981" gradientUnits="userSpaceOnUse">
<stop stop-color="#F7DD43"/>
<stop offset="1" stop-color="#F7DD43" stop-opacity="0"/>
</linearGradient>
<linearGradient id="paint52_linear_175_198" x1="937.5" y1="13.4373" x2="937.5" y2="318.981" gradientUnits="userSpaceOnUse">
<stop stop-color="#F7DD43"/>
<stop offset="1" stop-color="#F7DD43" stop-opacity="0"/>
</linearGradient>
<linearGradient id="paint53_linear_175_198" x1="937.5" y1="13.4373" x2="937.5" y2="318.981" gradientUnits="userSpaceOnUse">
<stop stop-color="#F7DD43"/>
<stop offset="1" stop-color="#F7DD43" stop-opacity="0"/>
</linearGradient>
<linearGradient id="paint54_linear_175_198" x1="937.5" y1="13.4373" x2="937.5" y2="318.981" gradientUnits="userSpaceOnUse">
<stop stop-color="#F7DD43"/>
<stop offset="1" stop-color="#F7DD43" stop-opacity="0"/>
</linearGradient>
<linearGradient id="paint55_linear_175_198" x1="937.5" y1="13.4373" x2="937.5" y2="318.981" gradientUnits="userSpaceOnUse">
<stop stop-color="#F7DD43"/>
<stop offset="1" stop-color="#F7DD43" stop-opacity="0"/>
</linearGradient>
<linearGradient id="paint56_linear_175_198" x1="937.5" y1="13.4373" x2="937.5" y2="318.981" gradientUnits="userSpaceOnUse">
<stop stop-color="#F7DD43"/>
<stop offset="1" stop-color="#F7DD43" stop-opacity="0"/>
</linearGradient>
<linearGradient id="paint57_linear_175_198" x1="937.5" y1="13.4373" x2="937.5" y2="318.981" gradientUnits="userSpaceOnUse">
<stop stop-color="#F7DD43"/>
<stop offset="1" stop-color="#F7DD43" stop-opacity="0"/>
</linearGradient>
<linearGradient id="paint58_linear_175_198" x1="937.5" y1="13.4373" x2="937.5" y2="318.981" gradientUnits="userSpaceOnUse">
<stop stop-color="#F7DD43"/>
<stop offset="1" stop-color="#F7DD43" stop-opacity="0"/>
</linearGradient>
<linearGradient id="paint59_linear_175_198" x1="937.5" y1="13.4373" x2="937.5" y2="318.981" gradientUnits="userSpaceOnUse">
<stop stop-color="#F7DD43"/>
<stop offset="1" stop-color="#F7DD43" stop-opacity="0"/>
</linearGradient>
<linearGradient id="paint60_linear_175_198" x1="937.5" y1="13.4373" x2="937.5" y2="318.981" gradientUnits="userSpaceOnUse">
<stop stop-color="#F7DD43"/>
<stop offset="1" stop-color="#F7DD43" stop-opacity="0"/>
</linearGradient>
<linearGradient id="paint61_linear_175_198" x1="937.5" y1="13.4373" x2="937.5" y2="318.981" gradientUnits="userSpaceOnUse">
<stop stop-color="#F7DD43"/>
<stop offset="1" stop-color="#F7DD43" stop-opacity="0"/>
</linearGradient>
<linearGradient id="paint62_linear_175_198" x1="937.5" y1="13.4373" x2="937.5" y2="318.981" gradientUnits="userSpaceOnUse">
<stop stop-color="#F7DD43"/>
<stop offset="1" stop-color="#F7DD43" stop-opacity="0"/>
</linearGradient>
<linearGradient id="paint63_linear_175_198" x1="937.5" y1="13.4373" x2="937.5" y2="318.981" gradientUnits="userSpaceOnUse">
<stop stop-color="#F7DD43"/>
<stop offset="1" stop-color="#F7DD43" stop-opacity="0"/>
</linearGradient>
<linearGradient id="paint64_linear_175_198" x1="937.5" y1="13.4373" x2="937.5" y2="318.981" gradientUnits="userSpaceOnUse">
<stop stop-color="#F7DD43"/>
<stop offset="1" stop-color="#F7DD43" stop-opacity="0"/>
</linearGradient>
<linearGradient id="paint65_linear_175_198" x1="937.5" y1="13.4373" x2="937.5" y2="318.981" gradientUnits="userSpaceOnUse">
<stop stop-color="#F7DD43"/>
<stop offset="1" stop-color="#F7DD43" stop-opacity="0"/>
</linearGradient>
<linearGradient id="paint66_linear_175_198" x1="937.5" y1="13.4373" x2="937.5" y2="318.981" gradientUnits="userSpaceOnUse">
<stop stop-color="#F7DD43"/>
<stop offset="1" stop-color="#F7DD43" stop-opacity="0"/>
</linearGradient>
<linearGradient id="paint67_linear_175_198" x1="937.5" y1="13.4373" x2="937.5" y2="318.981" gradientUnits="userSpaceOnUse">
<stop stop-color="#F7DD43"/>
<stop offset="1" stop-color="#F7DD43" stop-opacity="0"/>
</linearGradient>
<linearGradient id="paint68_linear_175_198" x1="937.5" y1="13.4373" x2="937.5" y2="318.981" gradientUnits="userSpaceOnUse">
<stop stop-color="#F7DD43"/>
<stop offset="1" stop-color="#F7DD43" stop-opacity="0"/>
</linearGradient>
<linearGradient id="paint69_linear_175_198" x1="937.5" y1="13.4373" x2="937.5" y2="318.981" gradientUnits="userSpaceOnUse">
<stop stop-color="#F7DD43"/>
<stop offset="1" stop-color="#F7DD43" stop-opacity="0"/>
</linearGradient>
<linearGradient id="paint70_linear_175_198" x1="937.5" y1="13.4373" x2="937.5" y2="318.981" gradientUnits="userSpaceOnUse">
<stop stop-color="#F7DD43"/>
<stop offset="1" stop-color="#F7DD43" stop-opacity="0"/>
</linearGradient>
<linearGradient id="paint71_linear_175_198" x1="937.5" y1="13.4373" x2="937.5" y2="318.981" gradientUnits="userSpaceOnUse">
<stop stop-color="#F7DD43"/>
<stop offset="1" stop-color="#F7DD43" stop-opacity="0"/>
</linearGradient>
<linearGradient id="paint72_linear_175_198" x1="937.5" y1="13.4373" x2="937.5" y2="318.981" gradientUnits="userSpaceOnUse">
<stop stop-color="#F7DD43"/>
<stop offset="1" stop-color="#F7DD43" stop-opacity="0"/>
</linearGradient>
<linearGradient id="paint73_linear_175_198" x1="937.5" y1="13.4373" x2="937.5" y2="318.981" gradientUnits="userSpaceOnUse">
<stop stop-color="#F7DD43"/>
<stop offset="1" stop-color="#F7DD43" stop-opacity="0"/>
</linearGradient>
<linearGradient id="paint74_linear_175_198" x1="937.5" y1="13.4373" x2="937.5" y2="318.981" gradientUnits="userSpaceOnUse">
<stop stop-color="#F7DD43"/>
<stop offset="1" stop-color="#F7DD43" stop-opacity="0"/>
</linearGradient>
<linearGradient id="paint75_linear_175_198" x1="937.5" y1="13.4373" x2="937.5" y2="318.981" gradientUnits="userSpaceOnUse">
<stop stop-color="#F7DD43"/>
<stop offset="1" stop-color="#F7DD43" stop-opacity="0"/>
</linearGradient>
<linearGradient id="paint76_linear_175_198" x1="937.5" y1="13.4373" x2="937.5" y2="318.981" gradientUnits="userSpaceOnUse">
<stop stop-color="#F7DD43"/>
<stop offset="1" stop-color="#F7DD43" stop-opacity="0"/>
</linearGradient>
<linearGradient id="paint77_linear_175_198" x1="937.5" y1="13.4373" x2="937.5" y2="318.981" gradientUnits="userSpaceOnUse">
<stop stop-color="#F7DD43"/>
<stop offset="1" stop-color="#F7DD43" stop-opacity="0"/>
</linearGradient>
<linearGradient id="paint78_linear_175_198" x1="937.5" y1="13.4373" x2="937.5" y2="318.981" gradientUnits="userSpaceOnUse">
<stop stop-color="#F7DD43"/>
<stop offset="1" stop-color="#F7DD43" stop-opacity="0"/>
</linearGradient>
<linearGradient id="paint79_linear_175_198" x1="937.5" y1="13.4373" x2="937.5" y2="318.981" gradientUnits="userSpaceOnUse">
<stop stop-color="#F7DD43"/>
<stop offset="1" stop-color="#F7DD43" stop-opacity="0"/>
</linearGradient>
<linearGradient id="paint80_linear_175_198" x1="937.5" y1="13.4373" x2="937.5" y2="318.981" gradientUnits="userSpaceOnUse">
<stop stop-color="#F7DD43"/>
<stop offset="1" stop-color="#F7DD43" stop-opacity="0"/>
</linearGradient>
<linearGradient id="paint81_linear_175_198" x1="937.5" y1="13.4373" x2="937.5" y2="318.981" gradientUnits="userSpaceOnUse">
<stop stop-color="#F7DD43"/>
<stop offset="1" stop-color="#F7DD43" stop-opacity="0"/>
</linearGradient>
<linearGradient id="paint82_linear_175_198" x1="937.5" y1="13.4373" x2="937.5" y2="318.981" gradientUnits="userSpaceOnUse">
<stop stop-color="#F7DD43"/>
<stop offset="1" stop-color="#F7DD43" stop-opacity="0"/>
</linearGradient>
<linearGradient id="paint83_linear_175_198" x1="937.5" y1="13.4373" x2="937.5" y2="318.981" gradientUnits="userSpaceOnUse">
<stop stop-color="#F7DD43"/>
<stop offset="1" stop-color="#F7DD43" stop-opacity="0"/>
</linearGradient>
<linearGradient id="paint84_linear_175_198" x1="937.5" y1="13.4373" x2="937.5" y2="318.981" gradientUnits="userSpaceOnUse">
<stop stop-color="#F7DD43"/>
<stop offset="1" stop-color="#F7DD43" stop-opacity="0"/>
</linearGradient>
<linearGradient id="paint85_linear_175_198" x1="937.5" y1="13.4373" x2="937.5" y2="318.981" gradientUnits="userSpaceOnUse">
<stop stop-color="#F7DD43"/>
<stop offset="1" stop-color="#F7DD43" stop-opacity="0"/>
</linearGradient>
<linearGradient id="paint86_linear_175_198" x1="937.5" y1="13.4373" x2="937.5" y2="318.981" gradientUnits="userSpaceOnUse">
<stop stop-color="#F7DD43"/>
<stop offset="1" stop-color="#F7DD43" stop-opacity="0"/>
</linearGradient>
<linearGradient id="paint87_linear_175_198" x1="937.5" y1="13.4373" x2="937.5" y2="318.981" gradientUnits="userSpaceOnUse">
<stop stop-color="#F7DD43"/>
<stop offset="1" stop-color="#F7DD43" stop-opacity="0"/>
</linearGradient>
<linearGradient id="paint88_linear_175_198" x1="937.5" y1="13.4373" x2="937.5" y2="318.981" gradientUnits="userSpaceOnUse">
<stop stop-color="#F7DD43"/>
<stop offset="1" stop-color="#F7DD43" stop-opacity="0"/>
</linearGradient>
<linearGradient id="paint89_linear_175_198" x1="937.5" y1="13.4373" x2="937.5" y2="318.981" gradientUnits="userSpaceOnUse">
<stop stop-color="#F7DD43"/>
<stop offset="1" stop-color="#F7DD43" stop-opacity="0"/>
</linearGradient>
<linearGradient id="paint90_linear_175_198" x1="937.5" y1="13.4373" x2="937.5" y2="318.981" gradientUnits="userSpaceOnUse">
<stop stop-color="#F7DD43"/>
<stop offset="1" stop-color="#F7DD43" stop-opacity="0"/>
</linearGradient>
<linearGradient id="paint91_linear_175_198" x1="937.5" y1="13.4373" x2="937.5" y2="318.981" gradientUnits="userSpaceOnUse">
<stop stop-color="#F7DD43"/>
<stop offset="1" stop-color="#F7DD43" stop-opacity="0"/>
</linearGradient>
<linearGradient id="paint92_linear_175_198" x1="937.5" y1="13.4373" x2="937.5" y2="318.981" gradientUnits="userSpaceOnUse">
<stop stop-color="#F7DD43"/>
<stop offset="1" stop-color="#F7DD43" stop-opacity="0"/>
</linearGradient>
<linearGradient id="paint93_linear_175_198" x1="937.5" y1="13.4373" x2="937.5" y2="318.981" gradientUnits="userSpaceOnUse">
<stop stop-color="#F7DD43"/>
<stop offset="1" stop-color="#F7DD43" stop-opacity="0"/>
</linearGradient>
</defs>
</svg>
